# xmcd
#
# Track frame offsets: 
#        150
#        12766
#        25809
#        34600
#        52247
#        63075
#        76471
#
# Disc length: 1232 seconds
#
# Revision: 0
# Processed by: cddbd v1.5.2PL0 Copyright (c) Steve Scherf et al.
# Submitted via: ExactAudioCopy v0.99pb3
#
DISCID=4d04ce07
DTITLE=James E. "Hoot" Gibson - Just Hoot, Eye Reckon
DYEAR=2006
DGENRE=Country
TTITLE0=Specialize In Mules
TTITLE1=Your Cheatin' Heart
TTITLE2=My Bucket's Got A Hole In It
TTITLE3=Never
TTITLE4=Mind Your Own Business
TTITLE5=Old Man Paul
TTITLE6=Ghost Riders In The Sky
EXTD=
EXTT0=
EXTT1=
EXTT2=
EXTT3=
EXTT4=
EXTT5=
EXTT6=
PLAYORDER=
